<svg width="61" height="61" viewBox="0 0 61 61" fill="none" xmlns="http://www.w3.org/2000/svg">
<path d="M30.4918 20.329C24.8914 20.329 20.321 24.8995 20.321 30.5C20.321 36.1005 24.8914 40.671 30.4918 40.671C36.0922 40.671 40.6626 36.1005 40.6626 30.5C40.6626 24.8995 36.0922 20.329 30.4918 20.329ZM60.9966 30.5C60.9966 26.2882 61.0347 22.1145 60.7982 17.9102C60.5617 13.0269 59.4477 8.69302 55.8769 5.1221C52.2984 1.54356 47.9722 0.437188 43.089 0.200653C38.8772 -0.0358813 34.7036 0.00226955 30.4994 0.00226955C26.2877 0.00226955 22.114 -0.0358813 17.9099 0.200653C13.0267 0.437188 8.69285 1.55119 5.12201 5.1221C1.54353 8.70065 0.43718 13.0269 0.20065 17.9102C-0.0358807 22.1221 0.0022695 26.2958 0.0022695 30.5C0.0022695 34.7042 -0.0358807 38.8855 0.20065 43.0898C0.43718 47.9731 1.55116 52.307 5.12201 55.8779C8.70048 59.4564 13.0267 60.5628 17.9099 60.7993C22.1217 61.0359 26.2953 60.9977 30.4994 60.9977C34.7112 60.9977 38.8848 61.0359 43.089 60.7993C47.9722 60.5628 52.306 59.4488 55.8769 55.8779C59.4553 52.2994 60.5617 47.9731 60.7982 43.0898C61.0424 38.8855 60.9966 34.7118 60.9966 30.5ZM30.4918 46.1494C21.8317 46.1494 14.8426 39.1602 14.8426 30.5C14.8426 21.8398 21.8317 14.8506 30.4918 14.8506C39.1519 14.8506 46.141 21.8398 46.141 30.5C46.141 39.1602 39.1519 46.1494 30.4918 46.1494ZM46.7819 17.8645C44.7599 17.8645 43.1271 16.2316 43.1271 14.2096C43.1271 12.1876 44.7599 10.5548 46.7819 10.5548C48.8038 10.5548 50.4367 12.1876 50.4367 14.2096C50.4373 14.6897 50.3431 15.1653 50.1597 15.609C49.9762 16.0527 49.707 16.4558 49.3675 16.7953C49.028 17.1348 48.6249 17.404 48.1812 17.5875C47.7375 17.7709 47.262 17.8651 46.7819 17.8645Z" fill="currentColor"/>
</svg>
