<svg width="61" height="36" viewBox="0 0 61 36" fill="none" xmlns="http://www.w3.org/2000/svg">
<path d="M58.0109 11.749C58.7258 8.6935 61 5.63616 61 5.63616H50.8032C45.0747 1.94645 38.1319 0 30.4285 0C22.4468 0 15.239 1.97683 9.54871 5.69692H0C0 5.69692 2.24182 8.703 2.96622 11.7376C1.11138 14.2898 0 17.3661 0 20.7482C0 29.1341 6.86081 35.9609 15.2791 35.9609C20.0963 35.9609 24.3626 33.7144 27.184 30.2545L30.419 35.1006L33.7055 30.1937C35.1871 32.0931 37.108 33.6072 39.3043 34.6069C43.0083 36.278 47.1678 36.466 50.9804 35.0608C58.8745 32.1439 62.9139 23.3612 60.0163 15.4994C59.518 14.1531 58.825 12.8864 57.9594 11.7395L58.0109 11.749ZM49.9472 32.1914C48.4468 32.7513 46.8494 33.0074 45.2485 32.9448C43.6475 32.8822 42.0752 32.5021 40.6235 31.8268C38.5585 30.8731 36.8065 29.3569 35.5698 27.4535C35.0513 26.6939 34.6167 25.8716 34.2888 24.9924C33.9094 23.9916 33.7321 22.9643 33.633 21.9161C33.4443 19.8101 33.7417 17.6832 34.6548 15.7045C35.3258 14.2523 36.2781 12.9465 37.4571 11.8619C38.6362 10.7774 40.0186 9.93556 41.5251 9.38473C47.8522 7.06988 54.8693 10.3038 57.1931 16.5837C59.5264 22.8655 56.28 29.8595 49.9853 32.1838H49.9472V32.1914ZM25.3749 27.5465C24.2581 29.1916 22.7539 30.5393 20.9937 31.4718C19.2335 32.4043 17.2708 32.8932 15.2772 32.8959C8.55742 32.8959 3.07488 27.4364 3.07488 20.7501C3.07488 14.0638 8.55742 8.59476 15.2772 8.59476C22.0007 8.59476 27.4699 14.0638 27.4699 20.7501C27.4699 21.166 27.4013 21.5401 27.3498 21.9654C27.142 24.0144 26.4863 25.9533 25.3749 27.5845V27.5465ZM7.52039 20.5906C7.52039 24.7455 10.9155 28.1086 15.077 28.1086C19.2385 28.1086 22.6241 24.7455 22.6241 20.5906C22.6241 18.5967 21.8289 16.6844 20.4136 15.2745C18.9982 13.8646 17.0786 13.0725 15.077 13.0725C13.0754 13.0725 11.1558 13.8646 9.74041 15.2745C8.32506 16.6844 7.52992 18.5967 7.52992 20.5906H7.52039ZM38.151 20.5906C38.1495 22.0769 38.5906 23.5303 39.4186 24.7669C40.2466 26.0034 41.4242 26.9674 42.8024 27.537C44.1806 28.1066 45.6975 28.2561 47.161 27.9667C48.6245 27.6772 49.969 26.9618 51.0242 25.9109C52.0794 24.86 52.798 23.5209 53.0889 22.0631C53.3799 20.6052 53.2302 19.0942 52.6587 17.7211C52.0873 16.3481 51.1198 15.1748 49.8787 14.3496C48.6376 13.5245 47.1787 13.0847 45.6866 13.0858C43.6879 13.0878 41.7715 13.8787 40.357 15.2853C38.9424 16.6919 38.1451 18.5996 38.1395 20.5906H38.151ZM10.1339 20.5906C10.1344 19.2881 10.6528 18.0388 11.5755 17.116C12.4983 16.1932 13.7504 15.6721 15.0579 15.6665C17.7592 15.6665 20.0124 17.8826 20.0124 20.5906C20.0124 21.9008 19.4899 23.1574 18.5599 24.0838C17.6299 25.0103 16.3685 25.5308 15.0532 25.5308C13.7379 25.5308 12.4765 25.0103 11.5464 24.0838C10.6164 23.1574 10.0939 21.9008 10.0939 20.5906H10.1339ZM40.7245 20.5906C40.7245 19.2846 41.2453 18.0322 42.1723 17.1088C43.0993 16.1853 44.3566 15.6665 45.6676 15.6665C46.9636 15.6953 48.1966 16.2294 49.1016 17.1539C50.0067 18.0785 50.5116 19.3198 50.5078 20.6112C50.5041 21.9026 49.992 23.1409 49.0816 24.0603C48.1712 24.9796 46.9351 25.5066 45.639 25.5279C44.9879 25.5287 44.343 25.4015 43.7413 25.1536C43.1397 24.9057 42.593 24.5421 42.1326 24.0835C41.6722 23.6248 41.3071 23.0803 41.0583 22.4809C40.8095 21.8815 40.6818 21.2392 40.6826 20.5906H40.7245ZM30.4171 2.65856C35.9072 2.65856 40.8637 3.63843 45.2119 5.59818C43.5577 5.64174 41.921 5.94883 40.3642 6.50778C38.4765 7.18966 36.745 8.24111 35.2717 9.60014C33.7984 10.9592 32.6131 12.5983 31.7858 14.4208C30.9928 16.0919 30.5753 17.8618 30.4152 19.6525C30.1337 15.8671 28.4454 12.3222 25.6803 9.71059C22.9151 7.09898 19.2717 5.60829 15.4621 5.52981C19.8104 3.67072 24.8564 2.66046 30.3065 2.66046L30.4171 2.65856Z" fill="currentColor"/>
</svg>
