<svg width="338" height="60" viewBox="0 0 338 60" fill="none" xmlns="http://www.w3.org/2000/svg">
<g clip-path="url(#clip0)">
<path d="M21.6229 56.2207H18.2078C12.7425 56.2207 8.31421 51.7924 8.31421 46.3271V9.55386H21.6229V56.2207Z" fill="currentColor"/>
<path d="M37.9801 56.2162H51.2888L51.2888 20.1045H37.9801V56.2162Z" fill="currentColor"/>
<path d="M55.0945 16.688V13.2729C55.0945 7.80758 50.6662 3.3793 45.2009 3.3793H25.0322V6.79438C25.0322 12.2597 29.4605 16.688 34.9258 16.688H55.0945Z" fill="currentColor"/>
<path d="M21.6227 3.46277H4.46387V10.5969H21.6227V3.46277Z" fill="currentColor"/>
<path d="M55.1361 49.0806H37.9773V56.2148H55.1361V49.0806Z" fill="currentColor"/>
</g>
<line x1="94.5" y1="3" x2="94.5" y2="56" stroke="currentColor" stroke-width="3"/>
<path d="M142.528 27H139.486V12.336H130.464V27H127.422V9.658H142.528V27ZM165.087 24.79C163.423 26.4713 161.3 27.312 158.717 27.312C156.135 27.312 154.011 26.4713 152.347 24.79C150.683 23.0913 149.851 20.942 149.851 18.342C149.851 15.742 150.683 13.6013 152.347 11.92C154.011 10.2213 156.135 9.372 158.717 9.372C161.3 9.372 163.423 10.2213 165.087 11.92C166.751 13.6013 167.583 15.742 167.583 18.342C167.583 20.942 166.751 23.0913 165.087 24.79ZM158.717 24.608C160.433 24.608 161.82 24.0187 162.877 22.84C163.935 21.644 164.463 20.1447 164.463 18.342C164.463 16.522 163.935 15.0227 162.877 13.844C161.82 12.6653 160.433 12.076 158.717 12.076C156.984 12.076 155.589 12.6653 154.531 13.844C153.491 15.0227 152.971 16.522 152.971 18.342C152.971 20.162 153.491 21.6613 154.531 22.84C155.589 24.0187 156.984 24.608 158.717 24.608ZM172.9 27.312V24.608C173.906 24.608 174.66 24.218 175.162 23.438C175.665 22.6407 176.055 21.02 176.332 18.576L177.346 9.658H189.124V27H186.082V12.336H180.076L179.348 18.784C179.14 20.5693 178.846 22.0427 178.464 23.204C178.1 24.3653 177.624 25.2407 177.034 25.83C176.462 26.402 175.856 26.792 175.214 27C174.59 27.208 173.819 27.312 172.9 27.312ZM200.165 27H197.227V9.658H200.269V21.696L209.135 9.658H212.255V27H209.213V14.624L200.165 27ZM220.36 9.658H232.242V12.336H223.402V16.132H227.978C229.729 16.132 231.107 16.6607 232.112 17.718C233.135 18.758 233.646 20.0407 233.646 21.566C233.646 23.1087 233.135 24.4 232.112 25.44C231.107 26.48 229.729 27 227.978 27H220.36V9.658ZM227.562 18.81H223.402V24.322H227.562C228.429 24.322 229.14 24.0707 229.694 23.568C230.249 23.0653 230.526 22.398 230.526 21.566C230.526 20.734 230.249 20.0667 229.694 19.564C229.14 19.0613 228.429 18.81 227.562 18.81ZM243.537 27H240.599V9.658H243.641V21.696L252.507 9.658H255.627V27H252.585V14.624L243.537 27ZM278.837 27H275.795V19.434H266.773V27H263.731V9.658H266.773V16.756H275.795V9.658H278.837V27ZM301.397 24.79C299.733 26.4713 297.609 27.312 295.027 27.312C292.444 27.312 290.321 26.4713 288.657 24.79C286.993 23.0913 286.161 20.942 286.161 18.342C286.161 15.742 286.993 13.6013 288.657 11.92C290.321 10.2213 292.444 9.372 295.027 9.372C297.609 9.372 299.733 10.2213 301.397 11.92C303.061 13.6013 303.893 15.742 303.893 18.342C303.893 20.942 303.061 23.0913 301.397 24.79ZM295.027 24.608C296.743 24.608 298.129 24.0187 299.187 22.84C300.244 21.644 300.773 20.1447 300.773 18.342C300.773 16.522 300.244 15.0227 299.187 13.844C298.129 12.6653 296.743 12.076 295.027 12.076C293.293 12.076 291.898 12.6653 290.841 13.844C289.801 15.0227 289.281 16.522 289.281 18.342C289.281 20.162 289.801 21.6613 290.841 22.84C291.898 24.0187 293.293 24.608 295.027 24.608Z" fill="currentColor"/>
<path d="M127.018 42.7161C127.451 42.1181 128.014 41.8191 128.708 41.8191C129.401 41.8191 129.964 42.1614 130.398 42.8461V39.5831H131.763V42.8331C132.187 42.1571 132.751 41.8191 133.453 41.8191C134.146 41.8191 134.709 42.1137 135.143 42.7031C135.576 43.2924 135.793 44.0941 135.793 45.1081C135.793 46.1221 135.576 46.9281 135.143 47.5261C134.709 48.1154 134.146 48.4101 133.453 48.4101C132.759 48.4101 132.196 48.0677 131.763 47.3831V50.6461H130.398V47.3961C129.973 48.0721 129.41 48.4101 128.708 48.4101C128.014 48.4101 127.451 48.1154 127.018 47.5261C126.584 46.9367 126.368 46.1351 126.368 45.1211C126.368 44.1071 126.584 43.3054 127.018 42.7161ZM129.137 43.0281C128.721 43.0281 128.383 43.2231 128.123 43.6131C127.871 44.0031 127.746 44.5057 127.746 45.1211C127.746 45.7364 127.871 46.2391 128.123 46.6291C128.383 47.0104 128.721 47.2011 129.137 47.2011C129.379 47.2011 129.618 47.1187 129.852 46.9541C130.094 46.7894 130.276 46.5901 130.398 46.3561V43.8731C130.276 43.6391 130.094 43.4397 129.852 43.2751C129.618 43.1104 129.379 43.0281 129.137 43.0281ZM133.024 47.2011C133.44 47.2011 133.773 47.0061 134.025 46.6161C134.285 46.2261 134.415 45.7234 134.415 45.1081C134.415 44.4927 134.285 43.9944 134.025 43.6131C133.773 43.2231 133.44 43.0281 133.024 43.0281C132.781 43.0281 132.538 43.1104 132.296 43.2751C132.062 43.4397 131.884 43.6391 131.763 43.8731V46.3561C131.884 46.5901 132.062 46.7894 132.296 46.9541C132.538 47.1187 132.781 47.2011 133.024 47.2011ZM141.773 48.4101C140.802 48.4101 140.022 48.0937 139.433 47.4611C138.843 46.8197 138.549 46.0354 138.549 45.1081C138.549 44.1807 138.843 43.4007 139.433 42.7681C140.022 42.1354 140.802 41.8191 141.773 41.8191C142.752 41.8191 143.536 42.1354 144.126 42.7681C144.715 43.4007 145.01 44.1807 145.01 45.1081C145.01 46.0441 144.715 46.8284 144.126 47.4611C143.536 48.0937 142.752 48.4101 141.773 48.4101ZM141.773 47.2011C142.336 47.2011 142.778 47.0017 143.099 46.6031C143.428 46.1957 143.593 45.6974 143.593 45.1081C143.593 44.5274 143.428 44.0377 143.099 43.6391C142.778 43.2317 142.336 43.0281 141.773 43.0281C141.218 43.0281 140.776 43.2317 140.447 43.6391C140.126 44.0377 139.966 44.5274 139.966 45.1081C139.966 45.6974 140.126 46.1957 140.447 46.6031C140.776 47.0017 141.218 47.2011 141.773 47.2011ZM149.316 48.2541H147.951V41.9751H149.316V44.4451H152.202V41.9751H153.567V48.2541H152.202V45.6411H149.316V48.2541ZM156.25 49.8531V47.1231C156.544 47.0537 156.765 46.8847 156.913 46.6161C157.069 46.3387 157.194 45.8101 157.29 45.0301L157.667 41.9751H162.516V47.0581H163.205V49.8531H161.84V48.2541H157.615V49.8531H156.25ZM158.876 43.1711L158.655 45.1861C158.568 46.0181 158.291 46.6421 157.823 47.0581H161.151V43.1711H158.876ZM174.165 48.4101C173.333 48.4101 172.662 48.0677 172.15 47.3831V50.6461H170.785V41.9751H172.15V42.8331C172.653 42.1571 173.325 41.8191 174.165 41.8191C174.989 41.8191 175.656 42.1137 176.167 42.7031C176.687 43.2924 176.947 44.0941 176.947 45.1081C176.947 46.1221 176.687 46.9281 176.167 47.5261C175.656 48.1154 174.989 48.4101 174.165 48.4101ZM173.762 47.2011C174.3 47.2011 174.729 47.0061 175.049 46.6161C175.37 46.2261 175.53 45.7234 175.53 45.1081C175.53 44.4927 175.37 43.9944 175.049 43.6131C174.729 43.2231 174.3 43.0281 173.762 43.0281C173.45 43.0281 173.143 43.1104 172.839 43.2751C172.536 43.4397 172.306 43.6391 172.15 43.8731V46.3561C172.306 46.5901 172.536 46.7894 172.839 46.9541C173.143 47.1187 173.45 47.2011 173.762 47.2011ZM185.061 48.2541H183.696V47.5781C183.21 48.1327 182.534 48.4101 181.668 48.4101C181.096 48.4101 180.589 48.2281 180.147 47.8641C179.705 47.4914 179.484 46.9801 179.484 46.3301C179.484 45.6627 179.7 45.1557 180.134 44.8091C180.576 44.4624 181.087 44.2891 181.668 44.2891C182.56 44.2891 183.236 44.5577 183.696 45.0951V44.1591C183.696 43.7951 183.561 43.5091 183.293 43.3011C183.024 43.0931 182.669 42.9891 182.227 42.9891C181.525 42.9891 180.905 43.2534 180.368 43.7821L179.809 42.8331C180.519 42.1571 181.399 41.8191 182.448 41.8191C183.219 41.8191 183.847 42.0011 184.333 42.3651C184.818 42.7291 185.061 43.3054 185.061 44.0941V48.2541ZM182.201 47.4741C182.885 47.4741 183.384 47.2574 183.696 46.8241V45.8751C183.384 45.4417 182.885 45.2251 182.201 45.2251C181.811 45.2251 181.49 45.3291 181.239 45.5371C180.987 45.7451 180.862 46.0181 180.862 46.3561C180.862 46.6941 180.987 46.9671 181.239 47.1751C181.49 47.3744 181.811 47.4741 182.201 47.4741ZM190.653 48.4101C189.422 48.4101 188.46 48.0721 187.767 47.3961L188.404 46.5251C188.976 47.0364 189.725 47.2921 190.653 47.2921C191.129 47.2921 191.502 47.2184 191.771 47.0711C192.048 46.9151 192.187 46.7071 192.187 46.4471C192.187 45.9011 191.636 45.6281 190.536 45.6281H189.197V44.5361H190.536C191.012 44.5361 191.385 44.4667 191.654 44.3281C191.931 44.1894 192.07 43.9857 192.07 43.7171C192.07 43.4917 191.927 43.3054 191.641 43.1581C191.355 43.0107 190.995 42.9371 190.562 42.9371C189.721 42.9371 189.049 43.1884 188.547 43.6911L187.871 42.8591C188.538 42.1744 189.413 41.8321 190.497 41.8321C191.424 41.8234 192.152 41.9751 192.681 42.2871C193.218 42.5904 193.487 43.0064 193.487 43.5351C193.487 43.9337 193.318 44.2717 192.98 44.5491C192.65 44.8177 192.265 44.9824 191.823 45.0431C192.265 45.0777 192.672 45.2251 193.045 45.4851C193.426 45.7451 193.617 46.1004 193.617 46.5511C193.617 47.0971 193.348 47.5434 192.811 47.8901C192.282 48.2367 191.563 48.4101 190.653 48.4101ZM200.4 48.2541H196.552V41.9751H200.309C200.89 41.9751 201.345 42.1267 201.674 42.4301C202.003 42.7334 202.168 43.1191 202.168 43.5871C202.168 43.9511 202.068 44.2587 201.869 44.5101C201.67 44.7614 201.418 44.9304 201.115 45.0171C201.453 45.0951 201.735 45.2814 201.96 45.5761C202.185 45.8621 202.298 46.1871 202.298 46.5511C202.298 47.0537 202.129 47.4654 201.791 47.7861C201.462 48.0981 200.998 48.2541 200.4 48.2541ZM200.114 47.0581C200.357 47.0581 200.547 46.9974 200.686 46.8761C200.825 46.7461 200.894 46.5727 200.894 46.3561C200.894 46.1567 200.825 45.9877 200.686 45.8491C200.547 45.7104 200.357 45.6411 200.114 45.6411H197.917V47.0581H200.114ZM200.075 44.4451C200.292 44.4451 200.461 44.3887 200.582 44.2761C200.712 44.1547 200.777 44.0031 200.777 43.8211C200.777 43.6217 200.712 43.4657 200.582 43.3531C200.461 43.2317 200.292 43.1711 200.075 43.1711H197.917V44.4451H200.075ZM206.865 48.2541H205.552V41.9751H206.917V46.2001L209.803 41.9751H211.168V48.2541H209.803V43.9121L206.865 48.2541ZM217.009 48.2541H215.644V43.1711H213.85V41.9751H218.816V43.1711H217.009V48.2541ZM222.807 48.2541H221.494V41.9751H222.859V46.2001L225.745 41.9751H227.11V48.2541H225.745V43.9121L222.807 48.2541ZM231.781 48.2541H230.221L231.768 45.9141C231.335 45.8187 230.98 45.6021 230.702 45.2641C230.434 44.9261 230.299 44.4971 230.299 43.9771C230.299 43.4137 230.481 42.9414 230.845 42.5601C231.218 42.1701 231.729 41.9751 232.379 41.9751H235.967V48.2541H234.602V45.9791H233.159L231.781 48.2541ZM232.548 44.7831H234.602V43.1711H232.548C232.288 43.1711 232.08 43.2491 231.924 43.4051C231.768 43.5524 231.69 43.7431 231.69 43.9771C231.69 44.2197 231.764 44.4147 231.911 44.5621C232.067 44.7094 232.28 44.7831 232.548 44.7831ZM243.915 50.7111L244.123 49.4891C244.279 49.5584 244.453 49.5931 244.643 49.5931C245.085 49.5931 245.384 49.4111 245.54 49.0471L245.852 48.3321L243.278 41.9751H244.734L246.567 46.6811L248.4 41.9751H249.869L246.84 49.3851C246.468 50.3124 245.748 50.7847 244.682 50.8021C244.396 50.8021 244.141 50.7717 243.915 50.7111ZM255.147 48.4101C254.193 48.4101 253.413 48.1024 252.807 47.4871C252.2 46.8631 251.897 46.0701 251.897 45.1081C251.897 44.1547 252.2 43.3704 252.807 42.7551C253.413 42.1311 254.193 41.8191 255.147 41.8191C256.195 41.8191 256.997 42.1917 257.552 42.9371L256.655 43.7691C256.308 43.2751 255.827 43.0281 255.212 43.0281C254.64 43.0281 254.18 43.2231 253.834 43.6131C253.487 43.9944 253.314 44.4927 253.314 45.1081C253.314 45.7234 253.487 46.2261 253.834 46.6161C254.18 47.0061 254.64 47.2011 255.212 47.2011C255.81 47.2011 256.291 46.9541 256.655 46.4601L257.552 47.2921C256.997 48.0374 256.195 48.4101 255.147 48.4101ZM265.508 48.2541H264.143V47.5781C263.658 48.1327 262.982 48.4101 262.115 48.4101C261.543 48.4101 261.036 48.2281 260.594 47.8641C260.152 47.4914 259.931 46.9801 259.931 46.3301C259.931 45.6627 260.148 45.1557 260.581 44.8091C261.023 44.4624 261.535 44.2891 262.115 44.2891C263.008 44.2891 263.684 44.5577 264.143 45.0951V44.1591C264.143 43.7951 264.009 43.5091 263.74 43.3011C263.472 43.0931 263.116 42.9891 262.674 42.9891C261.972 42.9891 261.353 43.2534 260.815 43.7821L260.256 42.8331C260.967 42.1571 261.847 41.8191 262.895 41.8191C263.667 41.8191 264.295 42.0011 264.78 42.3651C265.266 42.7291 265.508 43.3054 265.508 44.0941V48.2541ZM262.648 47.4741C263.333 47.4741 263.831 47.2574 264.143 46.8241V45.8751C263.831 45.4417 263.333 45.2251 262.648 45.2251C262.258 45.2251 261.938 45.3291 261.686 45.5371C261.435 45.7451 261.309 46.0181 261.309 46.3561C261.309 46.6941 261.435 46.9671 261.686 47.1751C261.938 47.3744 262.258 47.4741 262.648 47.4741ZM268.188 49.8531V47.1231C268.483 47.0537 268.704 46.8847 268.851 46.6161C269.007 46.3387 269.133 45.8101 269.228 45.0301L269.605 41.9751H274.454V47.0581H275.143V49.8531H273.778V48.2541H269.553V49.8531H268.188ZM270.814 43.1711L270.593 45.1861C270.507 46.0181 270.229 46.6421 269.761 47.0581H273.089V43.1711H270.814ZM277.825 41.9751H279.19V44.2501H281.413C282.08 44.2501 282.592 44.4407 282.947 44.8221C283.311 45.2034 283.493 45.6801 283.493 46.2521C283.493 46.8154 283.307 47.2921 282.934 47.6821C282.57 48.0634 282.063 48.2541 281.413 48.2541H277.825V41.9751ZM281.244 45.4461H279.19V47.0581H281.244C281.513 47.0581 281.721 46.9844 281.868 46.8371C282.024 46.6897 282.102 46.4947 282.102 46.2521C282.102 46.0094 282.024 45.8144 281.868 45.6671C281.721 45.5197 281.513 45.4461 281.244 45.4461ZM289.239 47.2011C289.803 47.2011 290.245 46.9974 290.565 46.5901C290.895 46.1827 291.059 45.6801 291.059 45.0821C291.059 44.5101 290.895 44.0247 290.565 43.6261C290.245 43.2274 289.803 43.0281 289.239 43.0281C288.685 43.0281 288.243 43.2274 287.913 43.6261C287.593 44.0247 287.432 44.5101 287.432 45.0821C287.432 45.6801 287.593 46.1827 287.913 46.5901C288.243 46.9974 288.685 47.2011 289.239 47.2011ZM291.592 47.4481C291.012 48.0894 290.227 48.4101 289.239 48.4101C288.251 48.4101 287.467 48.0764 286.886 47.4091C286.314 46.7331 286.028 45.8707 286.028 44.8221C286.028 43.3227 286.284 42.2047 286.795 41.4681C287.315 40.7314 288.113 40.2981 289.187 40.1681C289.837 40.0727 290.284 39.9817 290.526 39.8951C290.778 39.8084 290.903 39.7044 290.903 39.5831H292.242C292.242 40.4931 291.35 41.0477 289.564 41.2471C288.862 41.3251 288.321 41.5201 287.939 41.8321C287.567 42.1354 287.333 42.4994 287.237 42.9241C287.489 42.5774 287.814 42.3087 288.212 42.1181C288.62 41.9187 289.049 41.8191 289.499 41.8191C290.366 41.8191 291.077 42.1397 291.631 42.7811C292.186 43.4224 292.463 44.1937 292.463 45.0951C292.463 46.0224 292.173 46.8067 291.592 47.4481ZM295.468 41.9751H296.833V44.2501H299.056C299.724 44.2501 300.235 44.4407 300.59 44.8221C300.954 45.2034 301.136 45.6801 301.136 46.2521C301.136 46.8154 300.95 47.2921 300.577 47.6821C300.213 48.0634 299.706 48.2541 299.056 48.2541H295.468V41.9751ZM298.887 45.4461H296.833V47.0581H298.887C299.156 47.0581 299.364 46.9844 299.511 46.8371C299.667 46.6897 299.745 46.4947 299.745 46.2521C299.745 46.0094 299.667 45.8144 299.511 45.6671C299.364 45.5197 299.156 45.4461 298.887 45.4461ZM303.45 48.2541H302.085V41.9751H303.45V48.2541Z" fill="currentColor"/>
<defs>
<clipPath id="clip0">
<rect width="59.6" height="59.6" fill="white"/>
</clipPath>
</defs>
</svg>
