<svg width="216" height="19" viewBox="0 0 216 19" fill="none" xmlns="http://www.w3.org/2000/svg">
<path d="M156.434 16.9479C157.786 17.0662 159.114 17.3366 160.489 17.2859C169.904 16.9817 166.338 17.2014 175.73 17.0493C185.004 16.8972 194.256 16.9817 203.507 17.1845C207.585 17.269 211.616 17.8437 215.671 18.2324C215.881 18.2493 216.021 18.3845 215.997 18.5366L215.974 18.7225C215.951 18.8746 215.764 18.976 215.578 18.9591C212.758 18.6887 209.939 18.2324 207.096 18.2493C196.469 18.2493 185.82 18.3169 175.17 18.5704C165.243 18.807 168.296 18.6211 158.369 18.9929C157.273 19.0267 156.132 18.9422 155.083 18.6887C154.36 18.5028 153.755 17.9282 153.102 17.5225C153.661 16.8803 154.104 15.9846 154.78 15.6466C157.483 14.2945 160.21 12.9425 163.029 11.9115C168.109 10.0356 173.259 8.41311 178.339 6.62164C179.714 6.13152 181.043 5.3879 182.394 4.77947C182.324 4.45836 182.324 4.42456 182.278 4.10345C180.646 3.76544 179.015 3.20772 177.361 3.12321C170.044 2.7514 162.703 2.17678 155.339 2.27818C142.989 2.44719 130.638 2.7852 118.264 3.54573C102.814 4.44146 87.3637 5.5738 71.937 7.17936C55.9976 8.83562 40.0582 10.8806 24.1654 13.3143C16.2656 14.5142 8.48237 16.9648 0.629186 18.8408C0.466064 18.8746 0.279639 18.8408 0 18.4014C3.612 17.2014 7.20069 15.8325 10.8593 14.8184C23.8159 11.2017 36.9822 9.25814 50.1485 7.73708C65.6218 5.94562 81.1185 4.39076 96.6151 3.22462C112.438 2.04157 128.284 1.24724 144.084 0.740225C154.267 0.402212 159.72 -0.662527 172.514 0.60502C177.71 1.12894 179.924 1.87257 182.511 2.53169C183.28 2.7345 184.305 3.68093 184.305 4.34006C184.305 5.01608 183.28 6.11462 182.511 6.43574C179.178 7.82159 175.799 9.03843 172.397 10.2384C167.737 11.8946 163.076 13.4833 158.415 15.1396C157.716 15.3931 157.064 15.8663 156.388 16.2381L156.434 16.9479Z" fill="#C69D78"/>
</svg>
