<svg xmlns="http://www.w3.org/2000/svg" xmlns:xlink="http://www.w3.org/1999/xlink"><symbol id="cross" viewBox="0 0 32 32"><path d="M7 24L25 8M25 24L7 8" stroke-width="3" stroke-linecap="round"/></symbol><symbol id="icon-arrow" viewBox="0 0 16 14">
<path fill-rule="evenodd" clip-rule="evenodd" d="M0 7.00009C0 6.73492 0.105339 6.48061 0.292844 6.2931C0.480349 6.1056 0.73466 6.00026 0.999832 6.00026H12.5839L8.29061 1.70898C8.10287 1.52124 7.9974 1.2666 7.9974 1.0011C7.9974 0.735589 8.10287 0.480956 8.29061 0.293214C8.47835 0.105472 8.73299 0 8.99849 0C9.264 0 9.51863 0.105472 9.70637 0.293214L15.7054 6.29221C15.7985 6.38508 15.8724 6.49542 15.9228 6.61689C15.9732 6.73836 15.9991 6.86858 15.9991 7.00009C15.9991 7.1316 15.9732 7.26182 15.9228 7.38329C15.8724 7.50476 15.7985 7.6151 15.7054 7.70797L9.70637 13.707C9.51863 13.8947 9.264 14.0002 8.99849 14.0002C8.73299 14.0002 8.47835 13.8947 8.29061 13.707C8.10287 13.5192 7.9974 13.2646 7.9974 12.9991C7.9974 12.7336 8.10287 12.4789 8.29061 12.2912L12.5839 7.99992H0.999832C0.73466 7.99992 0.480349 7.89458 0.292844 7.70708C0.105339 7.51957 0 7.26526 0 7.00009Z" fill="currentColor"/>
</symbol><symbol id="icon-eye" viewBox="0 0 22 14">
<path d="M20.8737 6.73078C18.6686 2.65418 14.8014 0.187286 10.5219 0.187286C6.24249 0.187286 2.36874 2.65418 0.183218 6.73078L0 7.03832L0.170131 7.35241C2.37529 11.429 6.24249 13.8959 10.5219 13.8959C14.8014 13.8959 18.6751 11.4617 20.8737 7.35241L21.0439 7.03832L20.8737 6.73078ZM10.5219 12.5545C6.83795 12.5545 3.45496 10.4998 1.49192 7.03832C3.45496 3.57681 6.83795 1.52216 10.5219 1.52216C14.2059 1.52216 17.5496 3.58336 19.5454 7.03832C17.5496 10.4998 14.1994 12.5545 10.5219 12.5545Z" fill="#CECECE"/>
<path d="M10.7116 2.56909C9.82435 2.57556 8.95895 2.84482 8.22466 3.34284C7.49038 3.84087 6.92016 4.54533 6.58601 5.36724C6.25186 6.18916 6.16878 7.09167 6.34725 7.96077C6.52573 8.82988 6.95776 9.6266 7.58878 10.2503C8.2198 10.874 9.0215 11.2968 9.89262 11.4651C10.7638 11.6334 11.6652 11.5399 12.4832 11.1962C13.3012 10.8525 13.9989 10.2741 14.4884 9.53404C14.9778 8.79401 15.237 7.92553 15.2331 7.03829C15.2306 6.4477 15.1115 5.86342 14.8827 5.31894C14.6539 4.77445 14.3199 4.28047 13.8999 3.86529C13.4798 3.45012 12.982 3.12191 12.4349 2.89948C11.8878 2.67705 11.3022 2.56478 10.7116 2.56909ZM10.7116 10.2381C10.0849 10.2316 9.47405 10.0401 8.95583 9.68763C8.43761 9.33515 8.03509 8.83741 7.79883 8.25692C7.56257 7.67642 7.5031 7.03906 7.62789 6.42487C7.75269 5.81069 8.05618 5.24707 8.50025 4.80481C8.94432 4.36255 9.50917 4.06136 10.1239 3.93908C10.7385 3.81679 11.3757 3.87886 11.9552 4.11749C12.5347 4.35612 13.0308 4.76066 13.3812 5.28032C13.7315 5.79998 13.9205 6.41157 13.9244 7.03829C13.9262 7.46009 13.8442 7.87803 13.6832 8.26789C13.5222 8.65774 13.2854 9.01176 12.9865 9.30941C12.6876 9.60705 12.3326 9.8424 11.9421 10.0018C11.5516 10.1612 11.1334 10.2415 10.7116 10.2381Z" fill="#CECECE"/>
</symbol><symbol id="icon-mail" viewBox="0 0 28 20">
<path d="M26 0H2C1.46957 0 0.960859 0.210714 0.585786 0.585786C0.210714 0.960859 0 1.46957 0 2V18C0 18.5304 0.210714 19.0391 0.585786 19.4142C0.960859 19.7893 1.46957 20 2 20H26C26.5304 20 27.0391 19.7893 27.4142 19.4142C27.7893 19.0391 28 18.5304 28 18V2C28 1.46957 27.7893 0.960859 27.4142 0.585786C27.0391 0.210714 26.5304 0 26 0ZM23.8 2L14 8.78L4.2 2H23.8ZM2 18V2.91L13.43 10.82C13.5974 10.9361 13.7963 10.9984 14 10.9984C14.2037 10.9984 14.4026 10.9361 14.57 10.82L26 2.91V18H2Z" fill="#A4A4A4"/>
</symbol><symbol id="icon-phone" viewBox="0 0 28 27">
<path d="M21.651 26.9999C21.3784 26.9992 21.1068 26.9697 20.8406 26.912C15.773 25.8783 11.1045 23.4545 7.3722 19.9197C3.71958 16.3771 1.18629 11.8666 0.078837 6.93391C-0.0517454 6.31916 -0.0196953 5.6816 0.171904 5.08259C0.363503 4.48358 0.708203 3.94328 1.17284 3.51366L4.41433 0.437028C4.5799 0.282628 4.77662 0.164391 4.99166 0.0900341C5.2067 0.0156777 5.43522 -0.0131266 5.66231 0.0055009C5.89777 0.0297247 6.125 0.104523 6.328 0.224636C6.53101 0.344749 6.70487 0.507259 6.83735 0.70074L10.8892 6.60627C11.0412 6.83542 11.1145 7.10661 11.0985 7.37993C11.0824 7.65326 10.9778 7.91429 10.8001 8.12461L8.76604 10.522C9.57613 12.29 10.7234 13.888 12.1453 15.2288C13.558 16.6183 15.2278 17.7279 17.0643 18.4973L19.5845 16.5234C19.7962 16.3584 20.0538 16.2609 20.323 16.2438C20.5922 16.2267 20.8604 16.2907 21.0918 16.4275L27.2101 20.3272C27.4201 20.4509 27.599 20.6197 27.7333 20.8212C27.8677 21.0227 27.9541 21.2515 27.9861 21.4906C28.0181 21.7297 27.9947 21.9728 27.9179 22.2017C27.8411 22.4307 27.7127 22.6395 27.5424 22.8125L24.3819 25.8972C24.0229 26.2494 23.5968 26.5282 23.1281 26.7175C22.6594 26.9067 22.1574 27.0027 21.651 26.9999ZM5.53265 1.58777L2.29116 4.6644C2.02977 4.90458 1.83628 5.20771 1.72972 5.54398C1.62315 5.88026 1.60718 6.23809 1.68338 6.5823C2.71313 11.2109 5.08023 15.4464 8.49861 18.7769C12.0109 22.1025 16.4043 24.3823 21.1729 25.3537C21.5338 25.4282 21.9078 25.4131 22.2614 25.3099C22.615 25.2067 22.9371 25.0186 23.1988 24.7624L26.3592 21.6778L20.4516 17.9139L17.745 20.0396C17.6414 20.1204 17.5193 20.1751 17.3893 20.1988C17.2594 20.2224 17.1255 20.2144 16.9994 20.1754C14.752 19.3589 12.7154 18.0627 11.0351 16.3796C9.29712 14.7791 7.94807 12.8123 7.08857 10.6259C7.0522 10.4935 7.051 10.3541 7.08506 10.2212C7.11912 10.0882 7.1873 9.96615 7.28305 9.8667L9.47106 7.28553L5.53265 1.58777Z" fill="#A4A4A4"/>
</symbol><symbol id="icon-search" viewBox="0 0 18 19">
<path d="M6.79457 0.932587C7.98921 0.931992 9.15859 1.27652 10.1621 1.92475C11.1655 2.57297 11.9604 3.49728 12.451 4.58652C12.9417 5.67576 13.1072 6.88355 12.9277 8.06462C12.7482 9.2457 12.2313 10.3498 11.4393 11.2441L17.5044 18.1284L16.6626 18.88L10.6125 12.0257C9.8343 12.6344 8.9219 13.0484 7.9513 13.2331C6.9807 13.4178 5.98002 13.368 5.0326 13.0877C4.08518 12.8073 3.21846 12.3047 2.50461 11.6216C1.79077 10.9385 1.25048 10.0948 0.928753 9.1606C0.607019 8.22643 0.513157 7.22891 0.654982 6.25113C0.796806 5.27335 1.17021 4.3436 1.7441 3.53934C2.31799 2.73509 3.07574 2.0796 3.95424 1.62747C4.83274 1.17535 5.80655 0.939684 6.79457 0.940103V0.932587ZM6.79457 12.2061C8.14003 12.2061 9.43039 11.6716 10.3818 10.7202C11.3332 9.76883 11.8676 8.47848 11.8676 7.13301C11.8676 5.78755 11.3332 4.49719 10.3818 3.54581C9.43039 2.59442 8.14003 2.05994 6.79457 2.05994C5.44911 2.05994 4.15875 2.59442 3.20736 3.54581C2.25598 4.49719 1.72149 5.78755 1.72149 7.13301C1.72149 8.47848 2.25598 9.76883 3.20736 10.7202C4.15875 11.6716 5.44911 12.2061 6.79457 12.2061Z" fill="#CECECE"/>
</symbol><symbol id="menu" viewBox="0 0 32 32"><path d="M5 8h22M5 16h22M27 24H5" stroke-width="3" stroke-linecap="round"/></symbol></svg>