<svg width="77" height="50" viewBox="0 0 77 50" fill="none" xmlns="http://www.w3.org/2000/svg">
<path d="M75.1183 7.84549C74.684 6.33153 73.8378 4.96086 72.6699 3.8792C71.4689 2.76428 69.997 1.96675 68.393 1.56189C62.3901 0.0159749 38.3401 0.0159752 38.3401 0.0159752C28.3139 -0.0954786 18.2902 0.394723 8.32551 1.48381C6.7215 1.91859 5.25233 2.73393 4.04867 3.85734C2.86598 4.96915 2.00934 6.34018 1.56184 7.84237C0.48685 13.5006 -0.0354511 19.2457 0.00197279 25.0005C-0.0363845 30.75 0.484635 36.4933 1.56184 42.1586C1.99975 43.6545 2.8532 45.0193 4.03908 46.1217C5.22496 47.2242 6.70171 48.0206 8.32551 48.4422C14.4083 49.985 38.3401 49.985 38.3401 49.985C48.379 50.0966 58.4155 49.6064 68.393 48.5171C69.997 48.1123 71.4689 47.3147 72.6699 46.1998C73.8374 45.1184 74.6826 43.7475 75.1151 42.2335C76.2182 36.5775 76.7545 30.83 76.7166 25.0723C76.7995 19.2903 76.2639 13.5156 75.1183 7.84237V7.84549ZM30.6942 35.6938V14.3102L50.7039 25.0036L30.6942 35.6938Z" fill="white"/>
</svg>
