<svg width="61" height="36" viewBox="0 0 61 36" fill="none" xmlns="http://www.w3.org/2000/svg">
<path fill-rule="evenodd" clip-rule="evenodd" d="M59.0476 2.38708C59.4655 1.01224 59.0476 0 57.0457 0H50.4359C48.7539 0 47.9783 0.873753 47.5578 1.83815C47.5578 1.83815 44.1963 9.88574 39.4347 15.1132C37.8937 16.629 37.1937 17.1099 36.3526 17.1099C35.9321 17.1099 35.3001 16.629 35.3001 15.2516V2.38708C35.3001 0.735261 34.8368 0 33.4368 0H23.0424C21.9924 0 21.3604 0.765478 21.3604 1.49319C21.3604 3.05688 23.7424 3.41947 23.9867 7.82097V17.3844C23.9867 19.4819 23.6014 19.8621 22.7604 19.8621C20.5193 19.8621 15.0678 11.7768 11.8322 2.52557C11.2052 0.725189 10.5706 0 8.88105 0H2.26622C0.377703 0 0 0.873753 0 1.83815C0 3.55544 2.24104 12.0865 10.4372 23.3697C15.9013 31.0749 23.5938 35.2523 30.6015 35.2523C34.8041 35.2523 35.3228 34.3256 35.3228 32.7267V26.9025C35.3228 25.0467 35.7206 24.6766 37.0527 24.6766C38.0347 24.6766 39.7142 25.16 43.6373 28.8741C48.1194 33.2781 48.8571 35.2523 51.3802 35.2523H57.99C59.8785 35.2523 60.8253 34.3256 60.2814 32.4925C59.6821 30.6695 57.5418 28.023 54.704 24.8831C53.1629 23.0953 50.8514 21.169 50.1489 20.2046C49.1694 18.9682 49.4489 18.4168 50.1489 17.3164C50.1489 17.3164 58.2065 6.17167 59.045 2.38708H59.0476Z" fill="currentColor"/>
</svg>
