<svg width="32" height="20" viewBox="0 0 32 20" fill="none" xmlns="http://www.w3.org/2000/svg">
<path fill-rule="evenodd" clip-rule="evenodd" d="M31.7192 9.2817C31.8998 9.47997 32.0008 9.74844 32 10.028C31.9992 10.3077 31.8966 10.5755 31.7147 10.7727L23.4883 19.6933C23.3065 19.8905 23.0604 20.0008 22.8041 20C22.5478 19.9992 22.3023 19.8874 22.1217 19.6891C21.941 19.4909 21.84 19.2224 21.8408 18.9428C21.8417 18.6632 21.9443 18.3953 22.1261 18.1982L28.6976 11.0721L0.964446 10.9887C0.707827 10.9879 0.462051 10.8759 0.281183 10.6774C0.100316 10.4789 -0.000828082 10.2101 5.10711e-06 9.93013C0.000837269 9.65016 0.103578 9.38198 0.285623 9.18457C0.467668 8.98717 0.714107 8.8767 0.970724 8.87749L28.7039 8.96385L22.1749 1.79765C21.9942 1.59939 21.8932 1.33092 21.8941 1.05131C21.8949 0.771703 21.9975 0.503858 22.1793 0.306699C22.3611 0.109541 22.6073 -0.000780114 22.8635 4.15304e-06C23.1198 0.000788429 23.3653 0.112614 23.5459 0.310881L31.7192 9.2817Z" fill="currentColor"/>
</svg>
