<svg width="32" height="20" viewBox="0 0 32 20" fill="none" xmlns="http://www.w3.org/2000/svg">
<path fill-rule="evenodd" clip-rule="evenodd" d="M0.280828 9.2817C0.100189 9.47997 -0.000827012 9.74844 5.10039e-06 10.028C0.000836168 10.3077 0.103447 10.5755 0.285262 10.7727L8.5117 19.6933C8.69352 19.8905 8.93964 20.0008 9.19594 20C9.45223 19.9992 9.6977 19.8874 9.87834 19.6891C10.059 19.4909 10.16 19.2224 10.1592 18.9428C10.1583 18.6632 10.0557 18.3953 9.87391 18.1982L3.30235 11.0721L31.0356 10.9887C31.2922 10.9879 31.538 10.8759 31.7188 10.6774C31.8997 10.4789 32.0008 10.2101 32 9.93013C31.9992 9.65016 31.8964 9.38198 31.7144 9.18457C31.5323 8.98717 31.2859 8.87671 31.0293 8.87749L3.29608 8.96385L9.82513 1.79765C10.0058 1.59939 10.1068 1.33092 10.1059 1.05131C10.1051 0.771703 10.0025 0.503857 9.82069 0.306699C9.63888 0.10954 9.39275 -0.000780195 9.13645 4.15392e-06C8.88016 0.000788485 8.63469 0.112614 8.45405 0.310881L0.280828 9.2817Z" fill="currentColor"/>
</svg>
