<svg width="22" height="14" viewBox="0 0 22 14" fill="none" xmlns="http://www.w3.org/2000/svg">
<path d="M20.8737 6.73078C18.6686 2.65418 14.8014 0.187286 10.5219 0.187286C6.24249 0.187286 2.36874 2.65418 0.183218 6.73078L0 7.03832L0.170131 7.35241C2.37529 11.429 6.24249 13.8959 10.5219 13.8959C14.8014 13.8959 18.6751 11.4617 20.8737 7.35241L21.0439 7.03832L20.8737 6.73078ZM10.5219 12.5545C6.83795 12.5545 3.45496 10.4998 1.49192 7.03832C3.45496 3.57681 6.83795 1.52216 10.5219 1.52216C14.2059 1.52216 17.5496 3.58336 19.5454 7.03832C17.5496 10.4998 14.1994 12.5545 10.5219 12.5545Z" fill="#CECECE"/>
<path d="M10.7116 2.56909C9.82435 2.57556 8.95895 2.84482 8.22466 3.34284C7.49038 3.84087 6.92016 4.54533 6.58601 5.36724C6.25186 6.18916 6.16878 7.09167 6.34725 7.96077C6.52573 8.82988 6.95776 9.6266 7.58878 10.2503C8.2198 10.874 9.0215 11.2968 9.89262 11.4651C10.7638 11.6334 11.6652 11.5399 12.4832 11.1962C13.3012 10.8525 13.9989 10.2741 14.4884 9.53404C14.9778 8.79401 15.237 7.92553 15.2331 7.03829C15.2306 6.4477 15.1115 5.86342 14.8827 5.31894C14.6539 4.77445 14.3199 4.28047 13.8999 3.86529C13.4798 3.45012 12.982 3.12191 12.4349 2.89948C11.8878 2.67705 11.3022 2.56478 10.7116 2.56909ZM10.7116 10.2381C10.0849 10.2316 9.47405 10.0401 8.95583 9.68763C8.43761 9.33515 8.03509 8.83741 7.79883 8.25692C7.56257 7.67642 7.5031 7.03906 7.62789 6.42487C7.75269 5.81069 8.05618 5.24707 8.50025 4.80481C8.94432 4.36255 9.50917 4.06136 10.1239 3.93908C10.7385 3.81679 11.3757 3.87886 11.9552 4.11749C12.5347 4.35612 13.0308 4.76066 13.3812 5.28032C13.7315 5.79998 13.9205 6.41157 13.9244 7.03829C13.9262 7.46009 13.8442 7.87803 13.6832 8.26789C13.5222 8.65774 13.2854 9.01176 12.9865 9.30941C12.6876 9.60705 12.3326 9.8424 11.9421 10.0018C11.5516 10.1612 11.1334 10.2415 10.7116 10.2381Z" fill="#CECECE"/>
</svg>
