<svg width="16" height="14" viewBox="0 0 16 14" fill="none" xmlns="http://www.w3.org/2000/svg">
<path fill-rule="evenodd" clip-rule="evenodd" d="M0 7.00009C0 6.73492 0.105339 6.48061 0.292844 6.2931C0.480349 6.1056 0.73466 6.00026 0.999832 6.00026H12.5839L8.29061 1.70898C8.10287 1.52124 7.9974 1.2666 7.9974 1.0011C7.9974 0.735589 8.10287 0.480956 8.29061 0.293214C8.47835 0.105472 8.73299 0 8.99849 0C9.264 0 9.51863 0.105472 9.70637 0.293214L15.7054 6.29221C15.7985 6.38508 15.8724 6.49542 15.9228 6.61689C15.9732 6.73836 15.9991 6.86858 15.9991 7.00009C15.9991 7.1316 15.9732 7.26182 15.9228 7.38329C15.8724 7.50476 15.7985 7.6151 15.7054 7.70797L9.70637 13.707C9.51863 13.8947 9.264 14.0002 8.99849 14.0002C8.73299 14.0002 8.47835 13.8947 8.29061 13.707C8.10287 13.5192 7.9974 13.2646 7.9974 12.9991C7.9974 12.7336 8.10287 12.4789 8.29061 12.2912L12.5839 7.99992H0.999832C0.73466 7.99992 0.480349 7.89458 0.292844 7.70708C0.105339 7.51957 0 7.26526 0 7.00009Z" fill="currentColor"/>
</svg>
