<svg width="40" height="52" viewBox="0 0 40 52" fill="none" xmlns="http://www.w3.org/2000/svg">
<path fill-rule="evenodd" clip-rule="evenodd" d="M39.0683 27.178C39.2881 26.9318 39.4115 26.5981 39.4112 26.2502C39.4109 25.9023 39.287 25.5687 39.0668 25.3229L29.1029 14.1985C28.8827 13.9526 28.5842 13.8146 28.2731 13.8148C27.9619 13.815 27.6636 13.9534 27.4438 14.1995C27.224 14.4457 27.1006 14.7794 27.1009 15.1273C27.1012 15.4752 27.2251 15.8088 27.4453 16.0546L35.4047 24.9411L1.73557 24.9601C1.42403 24.9603 1.12536 25.0988 0.90526 25.3453C0.685162 25.5917 0.561669 25.9259 0.56195 26.2742C0.562229 26.6225 0.686258 26.9565 0.906752 27.2027C1.12725 27.4489 1.42614 27.5871 1.73768 27.5869L35.4069 27.5642L27.4617 36.4606C27.2419 36.7067 27.1185 37.0404 27.1188 37.3883C27.1191 37.7362 27.243 38.0698 27.4632 38.3157C27.6834 38.5615 27.9819 38.6995 28.2931 38.6993C28.6042 38.6991 28.9025 38.5608 29.1223 38.3146L39.0683 27.178Z" fill="#3B8F9E"/>
</svg>
