<svg width="18" height="19" viewBox="0 0 18 19" fill="none" xmlns="http://www.w3.org/2000/svg">
<path d="M6.79457 0.932587C7.98921 0.931992 9.15859 1.27652 10.1621 1.92475C11.1655 2.57297 11.9604 3.49728 12.451 4.58652C12.9417 5.67576 13.1072 6.88355 12.9277 8.06462C12.7482 9.2457 12.2313 10.3498 11.4393 11.2441L17.5044 18.1284L16.6626 18.88L10.6125 12.0257C9.8343 12.6344 8.9219 13.0484 7.9513 13.2331C6.9807 13.4178 5.98002 13.368 5.0326 13.0877C4.08518 12.8073 3.21846 12.3047 2.50461 11.6216C1.79077 10.9385 1.25048 10.0948 0.928753 9.1606C0.607019 8.22643 0.513157 7.22891 0.654982 6.25113C0.796806 5.27335 1.17021 4.3436 1.7441 3.53934C2.31799 2.73509 3.07574 2.0796 3.95424 1.62747C4.83274 1.17535 5.80655 0.939684 6.79457 0.940103V0.932587ZM6.79457 12.2061C8.14003 12.2061 9.43039 11.6716 10.3818 10.7202C11.3332 9.76883 11.8676 8.47848 11.8676 7.13301C11.8676 5.78755 11.3332 4.49719 10.3818 3.54581C9.43039 2.59442 8.14003 2.05994 6.79457 2.05994C5.44911 2.05994 4.15875 2.59442 3.20736 3.54581C2.25598 4.49719 1.72149 5.78755 1.72149 7.13301C1.72149 8.47848 2.25598 9.76883 3.20736 10.7202C4.15875 11.6716 5.44911 12.2061 6.79457 12.2061Z" fill="#CECECE"/>
</svg>
