<svg width="19" height="26" viewBox="0 0 19 26" fill="none" xmlns="http://www.w3.org/2000/svg">
<path d="M17.8759 24.0447C18.1345 24.0447 18.3825 24.1474 18.5654 24.3303C18.7482 24.5131 18.8509 24.7611 18.8509 25.0197C18.8509 25.2783 18.7482 25.5264 18.5654 25.7092C18.3825 25.8921 18.1345 25.9948 17.8759 25.9948L0.975049 26C0.71645 26 0.468442 25.8973 0.285585 25.7144C0.102728 25.5316 0 25.2836 0 25.025C0 24.7664 0.102728 24.5183 0.285585 24.3355C0.468442 24.1526 0.71645 24.0499 0.975049 24.0499L17.8759 24.0447ZM9.29286 0.00910041L9.42547 0C9.66109 9.93626e-06 9.88874 0.0853397 10.0663 0.240209C10.2439 0.395079 10.3594 0.609011 10.3914 0.842442L10.4005 0.975049L10.3992 18.7664L15.2381 13.9302C15.4032 13.7651 15.622 13.6647 15.8549 13.6472C16.0877 13.6298 16.3191 13.6966 16.5069 13.8353L16.6174 13.9302C16.7824 14.0955 16.8825 14.3144 16.8997 14.5473C16.9169 14.7801 16.8499 15.0114 16.711 15.1991L16.6161 15.3083L10.1197 21.8047C9.95461 21.9698 9.73574 22.0702 9.50289 22.0876C9.27003 22.1051 9.03866 22.0383 8.85084 21.8996L8.74034 21.8047L2.23611 15.3096C2.0612 15.1358 1.95861 14.9022 1.949 14.6559C1.93938 14.4095 2.02345 14.1686 2.18428 13.9818C2.34511 13.7949 2.57076 13.6759 2.81581 13.6487C3.06086 13.6216 3.3071 13.6882 3.50498 13.8353L3.61418 13.9289L8.44912 18.7573L8.45042 0.975049C8.45043 0.739428 8.53576 0.511781 8.69063 0.334207C8.8455 0.156633 9.05943 0.0411448 9.29286 0.00910041L9.42547 0L9.29286 0.00910041Z" fill="currentColor"/>
</svg>
