<svg width="28" height="27" viewBox="0 0 28 27" fill="none" xmlns="http://www.w3.org/2000/svg">
<path d="M21.651 26.9999C21.3784 26.9992 21.1068 26.9697 20.8406 26.912C15.773 25.8783 11.1045 23.4545 7.3722 19.9197C3.71958 16.3771 1.18629 11.8666 0.078837 6.93391C-0.0517454 6.31916 -0.0196953 5.6816 0.171904 5.08259C0.363503 4.48358 0.708203 3.94328 1.17284 3.51366L4.41433 0.437028C4.5799 0.282628 4.77662 0.164391 4.99166 0.0900341C5.2067 0.0156777 5.43522 -0.0131266 5.66231 0.0055009C5.89777 0.0297247 6.125 0.104523 6.328 0.224636C6.53101 0.344749 6.70487 0.507259 6.83735 0.70074L10.8892 6.60627C11.0412 6.83542 11.1145 7.10661 11.0985 7.37993C11.0824 7.65326 10.9778 7.91429 10.8001 8.12461L8.76604 10.522C9.57613 12.29 10.7234 13.888 12.1453 15.2288C13.558 16.6183 15.2278 17.7279 17.0643 18.4973L19.5845 16.5234C19.7962 16.3584 20.0538 16.2609 20.323 16.2438C20.5922 16.2267 20.8604 16.2907 21.0918 16.4275L27.2101 20.3272C27.4201 20.4509 27.599 20.6197 27.7333 20.8212C27.8677 21.0227 27.9541 21.2515 27.9861 21.4906C28.0181 21.7297 27.9947 21.9728 27.9179 22.2017C27.8411 22.4307 27.7127 22.6395 27.5424 22.8125L24.3819 25.8972C24.0229 26.2494 23.5968 26.5282 23.1281 26.7175C22.6594 26.9067 22.1574 27.0027 21.651 26.9999ZM5.53265 1.58777L2.29116 4.6644C2.02977 4.90458 1.83628 5.20771 1.72972 5.54398C1.62315 5.88026 1.60718 6.23809 1.68338 6.5823C2.71313 11.2109 5.08023 15.4464 8.49861 18.7769C12.0109 22.1025 16.4043 24.3823 21.1729 25.3537C21.5338 25.4282 21.9078 25.4131 22.2614 25.3099C22.615 25.2067 22.9371 25.0186 23.1988 24.7624L26.3592 21.6778L20.4516 17.9139L17.745 20.0396C17.6414 20.1204 17.5193 20.1751 17.3893 20.1988C17.2594 20.2224 17.1255 20.2144 16.9994 20.1754C14.752 19.3589 12.7154 18.0627 11.0351 16.3796C9.29712 14.7791 7.94807 12.8123 7.08857 10.6259C7.0522 10.4935 7.051 10.3541 7.08506 10.2212C7.11912 10.0882 7.1873 9.96615 7.28305 9.8667L9.47106 7.28553L5.53265 1.58777Z" fill="#A4A4A4"/>
</svg>
