<svg width="11" height="5" viewBox="0 0 11 5" fill="none" xmlns="http://www.w3.org/2000/svg">
<path d="M4.99831 0.00168896C4.8315 0.00136328 4.66985 0.0594578 4.5414 0.16589L0.257904 3.73547C0.11211 3.85665 0.020426 4.03079 0.00302094 4.21956C-0.0143842 4.40834 0.0439156 4.5963 0.165095 4.7421C0.286274 4.88789 0.460406 4.97957 0.649185 4.99698C0.837963 5.01438 1.02592 4.95608 1.17172 4.83491L4.99831 1.63656L8.82491 4.72068C8.89793 4.77998 8.98195 4.82427 9.07215 4.85099C9.16235 4.87771 9.25693 4.88635 9.35048 4.87639C9.44402 4.86644 9.53468 4.8381 9.61723 4.793C9.69979 4.7479 9.77261 4.68693 9.83153 4.61359C9.89691 4.54019 9.94642 4.45407 9.97697 4.36063C10.0075 4.2672 10.0184 4.16847 10.0091 4.07062C9.99968 3.97276 9.97019 3.8779 9.92245 3.79198C9.8747 3.70605 9.80972 3.63092 9.73158 3.57127L5.44808 0.123055C5.31594 0.0334468 5.15759 -0.0092845 4.99831 0.00168896Z" fill="#3B8F9E"/>
</svg>
