<svg xmlns="http://www.w3.org/2000/svg" xmlns:xlink="http://www.w3.org/1999/xlink"><defs>
<clipPath id="clip0">
<rect width="59.6" height="59.6" fill="white"/>
</clipPath>
</defs><symbol id="cross" viewBox="0 0 17 18">
<line x1="16.2929" y1="16.7071" x2="1.29289" y2="1.70711" stroke="currentColor" stroke-width="2"/>
<line y1="-1" x2="21.2132" y2="-1" transform="matrix(-0.707107 0.707107 0.707107 0.707107 17 2)" stroke="currentColor" stroke-width="2"/>
</symbol><symbol id="icon-arrow" viewBox="0 0 16 14">
<path fill-rule="evenodd" clip-rule="evenodd" d="M0 7.00009C0 6.73492 0.105339 6.48061 0.292844 6.2931C0.480349 6.1056 0.73466 6.00026 0.999832 6.00026H12.5839L8.29061 1.70898C8.10287 1.52124 7.9974 1.2666 7.9974 1.0011C7.9974 0.735589 8.10287 0.480956 8.29061 0.293214C8.47835 0.105472 8.73299 0 8.99849 0C9.264 0 9.51863 0.105472 9.70637 0.293214L15.7054 6.29221C15.7985 6.38508 15.8724 6.49542 15.9228 6.61689C15.9732 6.73836 15.9991 6.86858 15.9991 7.00009C15.9991 7.1316 15.9732 7.26182 15.9228 7.38329C15.8724 7.50476 15.7985 7.6151 15.7054 7.70797L9.70637 13.707C9.51863 13.8947 9.264 14.0002 8.99849 14.0002C8.73299 14.0002 8.47835 13.8947 8.29061 13.707C8.10287 13.5192 7.9974 13.2646 7.9974 12.9991C7.9974 12.7336 8.10287 12.4789 8.29061 12.2912L12.5839 7.99992H0.999832C0.73466 7.99992 0.480349 7.89458 0.292844 7.70708C0.105339 7.51957 0 7.26526 0 7.00009Z" fill="currentColor"/>
</symbol><symbol id="icon-eye" viewBox="0 0 22 14">
<path d="M20.8737 6.73078C18.6686 2.65418 14.8014 0.187286 10.5219 0.187286C6.24249 0.187286 2.36874 2.65418 0.183218 6.73078L0 7.03832L0.170131 7.35241C2.37529 11.429 6.24249 13.8959 10.5219 13.8959C14.8014 13.8959 18.6751 11.4617 20.8737 7.35241L21.0439 7.03832L20.8737 6.73078ZM10.5219 12.5545C6.83795 12.5545 3.45496 10.4998 1.49192 7.03832C3.45496 3.57681 6.83795 1.52216 10.5219 1.52216C14.2059 1.52216 17.5496 3.58336 19.5454 7.03832C17.5496 10.4998 14.1994 12.5545 10.5219 12.5545Z" fill="#CECECE"/>
<path d="M10.7116 2.56909C9.82435 2.57556 8.95895 2.84482 8.22466 3.34284C7.49038 3.84087 6.92016 4.54533 6.58601 5.36724C6.25186 6.18916 6.16878 7.09167 6.34725 7.96077C6.52573 8.82988 6.95776 9.6266 7.58878 10.2503C8.2198 10.874 9.0215 11.2968 9.89262 11.4651C10.7638 11.6334 11.6652 11.5399 12.4832 11.1962C13.3012 10.8525 13.9989 10.2741 14.4884 9.53404C14.9778 8.79401 15.237 7.92553 15.2331 7.03829C15.2306 6.4477 15.1115 5.86342 14.8827 5.31894C14.6539 4.77445 14.3199 4.28047 13.8999 3.86529C13.4798 3.45012 12.982 3.12191 12.4349 2.89948C11.8878 2.67705 11.3022 2.56478 10.7116 2.56909ZM10.7116 10.2381C10.0849 10.2316 9.47405 10.0401 8.95583 9.68763C8.43761 9.33515 8.03509 8.83741 7.79883 8.25692C7.56257 7.67642 7.5031 7.03906 7.62789 6.42487C7.75269 5.81069 8.05618 5.24707 8.50025 4.80481C8.94432 4.36255 9.50917 4.06136 10.1239 3.93908C10.7385 3.81679 11.3757 3.87886 11.9552 4.11749C12.5347 4.35612 13.0308 4.76066 13.3812 5.28032C13.7315 5.79998 13.9205 6.41157 13.9244 7.03829C13.9262 7.46009 13.8442 7.87803 13.6832 8.26789C13.5222 8.65774 13.2854 9.01176 12.9865 9.30941C12.6876 9.60705 12.3326 9.8424 11.9421 10.0018C11.5516 10.1612 11.1334 10.2415 10.7116 10.2381Z" fill="#CECECE"/>
</symbol><symbol id="icon-fb" viewBox="0 0 30 61">
<path d="M7.65831 61V32.377H0V22.0714H7.65831V13.269C7.65831 6.35205 12.1821 0 22.6059 0C26.8263 0 29.9471 0.399855 29.9471 0.399855L29.7012 10.0236C29.7012 10.0236 26.5185 9.99296 23.0453 9.99296C19.2864 9.99296 18.6841 11.7049 18.6841 14.5464V22.0714H30L29.5076 32.377H18.6841V61H7.65831Z" fill="currentColor"/>
</symbol><symbol id="icon-inst" viewBox="0 0 61 61">
<path d="M30.4918 20.329C24.8914 20.329 20.321 24.8995 20.321 30.5C20.321 36.1005 24.8914 40.671 30.4918 40.671C36.0922 40.671 40.6626 36.1005 40.6626 30.5C40.6626 24.8995 36.0922 20.329 30.4918 20.329ZM60.9966 30.5C60.9966 26.2882 61.0347 22.1145 60.7982 17.9102C60.5617 13.0269 59.4477 8.69302 55.8769 5.1221C52.2984 1.54356 47.9722 0.437188 43.089 0.200653C38.8772 -0.0358813 34.7036 0.00226955 30.4994 0.00226955C26.2877 0.00226955 22.114 -0.0358813 17.9099 0.200653C13.0267 0.437188 8.69285 1.55119 5.12201 5.1221C1.54353 8.70065 0.43718 13.0269 0.20065 17.9102C-0.0358807 22.1221 0.0022695 26.2958 0.0022695 30.5C0.0022695 34.7042 -0.0358807 38.8855 0.20065 43.0898C0.43718 47.9731 1.55116 52.307 5.12201 55.8779C8.70048 59.4564 13.0267 60.5628 17.9099 60.7993C22.1217 61.0359 26.2953 60.9977 30.4994 60.9977C34.7112 60.9977 38.8848 61.0359 43.089 60.7993C47.9722 60.5628 52.306 59.4488 55.8769 55.8779C59.4553 52.2994 60.5617 47.9731 60.7982 43.0898C61.0424 38.8855 60.9966 34.7118 60.9966 30.5ZM30.4918 46.1494C21.8317 46.1494 14.8426 39.1602 14.8426 30.5C14.8426 21.8398 21.8317 14.8506 30.4918 14.8506C39.1519 14.8506 46.141 21.8398 46.141 30.5C46.141 39.1602 39.1519 46.1494 30.4918 46.1494ZM46.7819 17.8645C44.7599 17.8645 43.1271 16.2316 43.1271 14.2096C43.1271 12.1876 44.7599 10.5548 46.7819 10.5548C48.8038 10.5548 50.4367 12.1876 50.4367 14.2096C50.4373 14.6897 50.3431 15.1653 50.1597 15.609C49.9762 16.0527 49.707 16.4558 49.3675 16.7953C49.028 17.1348 48.6249 17.404 48.1812 17.5875C47.7375 17.7709 47.262 17.8651 46.7819 17.8645Z" fill="currentColor"/>
</symbol><symbol id="icon-mail" viewBox="0 0 28 20">
<path d="M26 0H2C1.46957 0 0.960859 0.210714 0.585786 0.585786C0.210714 0.960859 0 1.46957 0 2V18C0 18.5304 0.210714 19.0391 0.585786 19.4142C0.960859 19.7893 1.46957 20 2 20H26C26.5304 20 27.0391 19.7893 27.4142 19.4142C27.7893 19.0391 28 18.5304 28 18V2C28 1.46957 27.7893 0.960859 27.4142 0.585786C27.0391 0.210714 26.5304 0 26 0ZM23.8 2L14 8.78L4.2 2H23.8ZM2 18V2.91L13.43 10.82C13.5974 10.9361 13.7963 10.9984 14 10.9984C14.2037 10.9984 14.4026 10.9361 14.57 10.82L26 2.91V18H2Z" fill="#A4A4A4"/>
</symbol><symbol id="icon-phone" viewBox="0 0 28 27">
<path d="M21.651 26.9999C21.3784 26.9992 21.1068 26.9697 20.8406 26.912C15.773 25.8783 11.1045 23.4545 7.3722 19.9197C3.71958 16.3771 1.18629 11.8666 0.078837 6.93391C-0.0517454 6.31916 -0.0196953 5.6816 0.171904 5.08259C0.363503 4.48358 0.708203 3.94328 1.17284 3.51366L4.41433 0.437028C4.5799 0.282628 4.77662 0.164391 4.99166 0.0900341C5.2067 0.0156777 5.43522 -0.0131266 5.66231 0.0055009C5.89777 0.0297247 6.125 0.104523 6.328 0.224636C6.53101 0.344749 6.70487 0.507259 6.83735 0.70074L10.8892 6.60627C11.0412 6.83542 11.1145 7.10661 11.0985 7.37993C11.0824 7.65326 10.9778 7.91429 10.8001 8.12461L8.76604 10.522C9.57613 12.29 10.7234 13.888 12.1453 15.2288C13.558 16.6183 15.2278 17.7279 17.0643 18.4973L19.5845 16.5234C19.7962 16.3584 20.0538 16.2609 20.323 16.2438C20.5922 16.2267 20.8604 16.2907 21.0918 16.4275L27.2101 20.3272C27.4201 20.4509 27.599 20.6197 27.7333 20.8212C27.8677 21.0227 27.9541 21.2515 27.9861 21.4906C28.0181 21.7297 27.9947 21.9728 27.9179 22.2017C27.8411 22.4307 27.7127 22.6395 27.5424 22.8125L24.3819 25.8972C24.0229 26.2494 23.5968 26.5282 23.1281 26.7175C22.6594 26.9067 22.1574 27.0027 21.651 26.9999ZM5.53265 1.58777L2.29116 4.6644C2.02977 4.90458 1.83628 5.20771 1.72972 5.54398C1.62315 5.88026 1.60718 6.23809 1.68338 6.5823C2.71313 11.2109 5.08023 15.4464 8.49861 18.7769C12.0109 22.1025 16.4043 24.3823 21.1729 25.3537C21.5338 25.4282 21.9078 25.4131 22.2614 25.3099C22.615 25.2067 22.9371 25.0186 23.1988 24.7624L26.3592 21.6778L20.4516 17.9139L17.745 20.0396C17.6414 20.1204 17.5193 20.1751 17.3893 20.1988C17.2594 20.2224 17.1255 20.2144 16.9994 20.1754C14.752 19.3589 12.7154 18.0627 11.0351 16.3796C9.29712 14.7791 7.94807 12.8123 7.08857 10.6259C7.0522 10.4935 7.051 10.3541 7.08506 10.2212C7.11912 10.0882 7.1873 9.96615 7.28305 9.8667L9.47106 7.28553L5.53265 1.58777Z" fill="#A4A4A4"/>
</symbol><symbol id="icon-search" viewBox="0 0 18 19">
<path d="M6.79457 0.932587C7.98921 0.931992 9.15859 1.27652 10.1621 1.92475C11.1655 2.57297 11.9604 3.49728 12.451 4.58652C12.9417 5.67576 13.1072 6.88355 12.9277 8.06462C12.7482 9.2457 12.2313 10.3498 11.4393 11.2441L17.5044 18.1284L16.6626 18.88L10.6125 12.0257C9.8343 12.6344 8.9219 13.0484 7.9513 13.2331C6.9807 13.4178 5.98002 13.368 5.0326 13.0877C4.08518 12.8073 3.21846 12.3047 2.50461 11.6216C1.79077 10.9385 1.25048 10.0948 0.928753 9.1606C0.607019 8.22643 0.513157 7.22891 0.654982 6.25113C0.796806 5.27335 1.17021 4.3436 1.7441 3.53934C2.31799 2.73509 3.07574 2.0796 3.95424 1.62747C4.83274 1.17535 5.80655 0.939684 6.79457 0.940103V0.932587ZM6.79457 12.2061C8.14003 12.2061 9.43039 11.6716 10.3818 10.7202C11.3332 9.76883 11.8676 8.47848 11.8676 7.13301C11.8676 5.78755 11.3332 4.49719 10.3818 3.54581C9.43039 2.59442 8.14003 2.05994 6.79457 2.05994C5.44911 2.05994 4.15875 2.59442 3.20736 3.54581C2.25598 4.49719 1.72149 5.78755 1.72149 7.13301C1.72149 8.47848 2.25598 9.76883 3.20736 10.7202C4.15875 11.6716 5.44911 12.2061 6.79457 12.2061Z" fill="#CECECE"/>
</symbol><symbol id="icon-trip" viewBox="0 0 61 36">
<path d="M58.0109 11.749C58.7258 8.6935 61 5.63616 61 5.63616H50.8032C45.0747 1.94645 38.1319 0 30.4285 0C22.4468 0 15.239 1.97683 9.54871 5.69692H0C0 5.69692 2.24182 8.703 2.96622 11.7376C1.11138 14.2898 0 17.3661 0 20.7482C0 29.1341 6.86081 35.9609 15.2791 35.9609C20.0963 35.9609 24.3626 33.7144 27.184 30.2545L30.419 35.1006L33.7055 30.1937C35.1871 32.0931 37.108 33.6072 39.3043 34.6069C43.0083 36.278 47.1678 36.466 50.9804 35.0608C58.8745 32.1439 62.9139 23.3612 60.0163 15.4994C59.518 14.1531 58.825 12.8864 57.9594 11.7395L58.0109 11.749ZM49.9472 32.1914C48.4468 32.7513 46.8494 33.0074 45.2485 32.9448C43.6475 32.8822 42.0752 32.5021 40.6235 31.8268C38.5585 30.8731 36.8065 29.3569 35.5698 27.4535C35.0513 26.6939 34.6167 25.8716 34.2888 24.9924C33.9094 23.9916 33.7321 22.9643 33.633 21.9161C33.4443 19.8101 33.7417 17.6832 34.6548 15.7045C35.3258 14.2523 36.2781 12.9465 37.4571 11.8619C38.6362 10.7774 40.0186 9.93556 41.5251 9.38473C47.8522 7.06988 54.8693 10.3038 57.1931 16.5837C59.5264 22.8655 56.28 29.8595 49.9853 32.1838H49.9472V32.1914ZM25.3749 27.5465C24.2581 29.1916 22.7539 30.5393 20.9937 31.4718C19.2335 32.4043 17.2708 32.8932 15.2772 32.8959C8.55742 32.8959 3.07488 27.4364 3.07488 20.7501C3.07488 14.0638 8.55742 8.59476 15.2772 8.59476C22.0007 8.59476 27.4699 14.0638 27.4699 20.7501C27.4699 21.166 27.4013 21.5401 27.3498 21.9654C27.142 24.0144 26.4863 25.9533 25.3749 27.5845V27.5465ZM7.52039 20.5906C7.52039 24.7455 10.9155 28.1086 15.077 28.1086C19.2385 28.1086 22.6241 24.7455 22.6241 20.5906C22.6241 18.5967 21.8289 16.6844 20.4136 15.2745C18.9982 13.8646 17.0786 13.0725 15.077 13.0725C13.0754 13.0725 11.1558 13.8646 9.74041 15.2745C8.32506 16.6844 7.52992 18.5967 7.52992 20.5906H7.52039ZM38.151 20.5906C38.1495 22.0769 38.5906 23.5303 39.4186 24.7669C40.2466 26.0034 41.4242 26.9674 42.8024 27.537C44.1806 28.1066 45.6975 28.2561 47.161 27.9667C48.6245 27.6772 49.969 26.9618 51.0242 25.9109C52.0794 24.86 52.798 23.5209 53.0889 22.0631C53.3799 20.6052 53.2302 19.0942 52.6587 17.7211C52.0873 16.3481 51.1198 15.1748 49.8787 14.3496C48.6376 13.5245 47.1787 13.0847 45.6866 13.0858C43.6879 13.0878 41.7715 13.8787 40.357 15.2853C38.9424 16.6919 38.1451 18.5996 38.1395 20.5906H38.151ZM10.1339 20.5906C10.1344 19.2881 10.6528 18.0388 11.5755 17.116C12.4983 16.1932 13.7504 15.6721 15.0579 15.6665C17.7592 15.6665 20.0124 17.8826 20.0124 20.5906C20.0124 21.9008 19.4899 23.1574 18.5599 24.0838C17.6299 25.0103 16.3685 25.5308 15.0532 25.5308C13.7379 25.5308 12.4765 25.0103 11.5464 24.0838C10.6164 23.1574 10.0939 21.9008 10.0939 20.5906H10.1339ZM40.7245 20.5906C40.7245 19.2846 41.2453 18.0322 42.1723 17.1088C43.0993 16.1853 44.3566 15.6665 45.6676 15.6665C46.9636 15.6953 48.1966 16.2294 49.1016 17.1539C50.0067 18.0785 50.5116 19.3198 50.5078 20.6112C50.5041 21.9026 49.992 23.1409 49.0816 24.0603C48.1712 24.9796 46.9351 25.5066 45.639 25.5279C44.9879 25.5287 44.343 25.4015 43.7413 25.1536C43.1397 24.9057 42.593 24.5421 42.1326 24.0835C41.6722 23.6248 41.3071 23.0803 41.0583 22.4809C40.8095 21.8815 40.6818 21.2392 40.6826 20.5906H40.7245ZM30.4171 2.65856C35.9072 2.65856 40.8637 3.63843 45.2119 5.59818C43.5577 5.64174 41.921 5.94883 40.3642 6.50778C38.4765 7.18966 36.745 8.24111 35.2717 9.60014C33.7984 10.9592 32.6131 12.5983 31.7858 14.4208C30.9928 16.0919 30.5753 17.8618 30.4152 19.6525C30.1337 15.8671 28.4454 12.3222 25.6803 9.71059C22.9151 7.09898 19.2717 5.60829 15.4621 5.52981C19.8104 3.67072 24.8564 2.66046 30.3065 2.66046L30.4171 2.65856Z" fill="currentColor"/>
</symbol><symbol id="icon-vk" viewBox="0 0 61 36">
<path fill-rule="evenodd" clip-rule="evenodd" d="M59.0476 2.38708C59.4655 1.01224 59.0476 0 57.0457 0H50.4359C48.7539 0 47.9783 0.873753 47.5578 1.83815C47.5578 1.83815 44.1963 9.88574 39.4347 15.1132C37.8937 16.629 37.1937 17.1099 36.3526 17.1099C35.9321 17.1099 35.3001 16.629 35.3001 15.2516V2.38708C35.3001 0.735261 34.8368 0 33.4368 0H23.0424C21.9924 0 21.3604 0.765478 21.3604 1.49319C21.3604 3.05688 23.7424 3.41947 23.9867 7.82097V17.3844C23.9867 19.4819 23.6014 19.8621 22.7604 19.8621C20.5193 19.8621 15.0678 11.7768 11.8322 2.52557C11.2052 0.725189 10.5706 0 8.88105 0H2.26622C0.377703 0 0 0.873753 0 1.83815C0 3.55544 2.24104 12.0865 10.4372 23.3697C15.9013 31.0749 23.5938 35.2523 30.6015 35.2523C34.8041 35.2523 35.3228 34.3256 35.3228 32.7267V26.9025C35.3228 25.0467 35.7206 24.6766 37.0527 24.6766C38.0347 24.6766 39.7142 25.16 43.6373 28.8741C48.1194 33.2781 48.8571 35.2523 51.3802 35.2523H57.99C59.8785 35.2523 60.8253 34.3256 60.2814 32.4925C59.6821 30.6695 57.5418 28.023 54.704 24.8831C53.1629 23.0953 50.8514 21.169 50.1489 20.2046C49.1694 18.9682 49.4489 18.4168 50.1489 17.3164C50.1489 17.3164 58.2065 6.17167 59.045 2.38708H59.0476Z" fill="currentColor"/>
</symbol><symbol id="logo" viewBox="0 0 338 60">
<g clip-path="url(#clip0)">
<path d="M21.6229 56.2207H18.2078C12.7425 56.2207 8.31421 51.7924 8.31421 46.3271V9.55386H21.6229V56.2207Z" fill="currentColor"/>
<path d="M37.9801 56.2162H51.2888L51.2888 20.1045H37.9801V56.2162Z" fill="currentColor"/>
<path d="M55.0945 16.688V13.2729C55.0945 7.80758 50.6662 3.3793 45.2009 3.3793H25.0322V6.79438C25.0322 12.2597 29.4605 16.688 34.9258 16.688H55.0945Z" fill="currentColor"/>
<path d="M21.6227 3.46277H4.46387V10.5969H21.6227V3.46277Z" fill="currentColor"/>
<path d="M55.1361 49.0806H37.9773V56.2148H55.1361V49.0806Z" fill="currentColor"/>
</g>
<line x1="94.5" y1="3" x2="94.5" y2="56" stroke="currentColor" stroke-width="3"/>
<path d="M142.528 27H139.486V12.336H130.464V27H127.422V9.658H142.528V27ZM165.087 24.79C163.423 26.4713 161.3 27.312 158.717 27.312C156.135 27.312 154.011 26.4713 152.347 24.79C150.683 23.0913 149.851 20.942 149.851 18.342C149.851 15.742 150.683 13.6013 152.347 11.92C154.011 10.2213 156.135 9.372 158.717 9.372C161.3 9.372 163.423 10.2213 165.087 11.92C166.751 13.6013 167.583 15.742 167.583 18.342C167.583 20.942 166.751 23.0913 165.087 24.79ZM158.717 24.608C160.433 24.608 161.82 24.0187 162.877 22.84C163.935 21.644 164.463 20.1447 164.463 18.342C164.463 16.522 163.935 15.0227 162.877 13.844C161.82 12.6653 160.433 12.076 158.717 12.076C156.984 12.076 155.589 12.6653 154.531 13.844C153.491 15.0227 152.971 16.522 152.971 18.342C152.971 20.162 153.491 21.6613 154.531 22.84C155.589 24.0187 156.984 24.608 158.717 24.608ZM172.9 27.312V24.608C173.906 24.608 174.66 24.218 175.162 23.438C175.665 22.6407 176.055 21.02 176.332 18.576L177.346 9.658H189.124V27H186.082V12.336H180.076L179.348 18.784C179.14 20.5693 178.846 22.0427 178.464 23.204C178.1 24.3653 177.624 25.2407 177.034 25.83C176.462 26.402 175.856 26.792 175.214 27C174.59 27.208 173.819 27.312 172.9 27.312ZM200.165 27H197.227V9.658H200.269V21.696L209.135 9.658H212.255V27H209.213V14.624L200.165 27ZM220.36 9.658H232.242V12.336H223.402V16.132H227.978C229.729 16.132 231.107 16.6607 232.112 17.718C233.135 18.758 233.646 20.0407 233.646 21.566C233.646 23.1087 233.135 24.4 232.112 25.44C231.107 26.48 229.729 27 227.978 27H220.36V9.658ZM227.562 18.81H223.402V24.322H227.562C228.429 24.322 229.14 24.0707 229.694 23.568C230.249 23.0653 230.526 22.398 230.526 21.566C230.526 20.734 230.249 20.0667 229.694 19.564C229.14 19.0613 228.429 18.81 227.562 18.81ZM243.537 27H240.599V9.658H243.641V21.696L252.507 9.658H255.627V27H252.585V14.624L243.537 27ZM278.837 27H275.795V19.434H266.773V27H263.731V9.658H266.773V16.756H275.795V9.658H278.837V27ZM301.397 24.79C299.733 26.4713 297.609 27.312 295.027 27.312C292.444 27.312 290.321 26.4713 288.657 24.79C286.993 23.0913 286.161 20.942 286.161 18.342C286.161 15.742 286.993 13.6013 288.657 11.92C290.321 10.2213 292.444 9.372 295.027 9.372C297.609 9.372 299.733 10.2213 301.397 11.92C303.061 13.6013 303.893 15.742 303.893 18.342C303.893 20.942 303.061 23.0913 301.397 24.79ZM295.027 24.608C296.743 24.608 298.129 24.0187 299.187 22.84C300.244 21.644 300.773 20.1447 300.773 18.342C300.773 16.522 300.244 15.0227 299.187 13.844C298.129 12.6653 296.743 12.076 295.027 12.076C293.293 12.076 291.898 12.6653 290.841 13.844C289.801 15.0227 289.281 16.522 289.281 18.342C289.281 20.162 289.801 21.6613 290.841 22.84C291.898 24.0187 293.293 24.608 295.027 24.608Z" fill="currentColor"/>
<path d="M127.018 42.7161C127.451 42.1181 128.014 41.8191 128.708 41.8191C129.401 41.8191 129.964 42.1614 130.398 42.8461V39.5831H131.763V42.8331C132.187 42.1571 132.751 41.8191 133.453 41.8191C134.146 41.8191 134.709 42.1137 135.143 42.7031C135.576 43.2924 135.793 44.0941 135.793 45.1081C135.793 46.1221 135.576 46.9281 135.143 47.5261C134.709 48.1154 134.146 48.4101 133.453 48.4101C132.759 48.4101 132.196 48.0677 131.763 47.3831V50.6461H130.398V47.3961C129.973 48.0721 129.41 48.4101 128.708 48.4101C128.014 48.4101 127.451 48.1154 127.018 47.5261C126.584 46.9367 126.368 46.1351 126.368 45.1211C126.368 44.1071 126.584 43.3054 127.018 42.7161ZM129.137 43.0281C128.721 43.0281 128.383 43.2231 128.123 43.6131C127.871 44.0031 127.746 44.5057 127.746 45.1211C127.746 45.7364 127.871 46.2391 128.123 46.6291C128.383 47.0104 128.721 47.2011 129.137 47.2011C129.379 47.2011 129.618 47.1187 129.852 46.9541C130.094 46.7894 130.276 46.5901 130.398 46.3561V43.8731C130.276 43.6391 130.094 43.4397 129.852 43.2751C129.618 43.1104 129.379 43.0281 129.137 43.0281ZM133.024 47.2011C133.44 47.2011 133.773 47.0061 134.025 46.6161C134.285 46.2261 134.415 45.7234 134.415 45.1081C134.415 44.4927 134.285 43.9944 134.025 43.6131C133.773 43.2231 133.44 43.0281 133.024 43.0281C132.781 43.0281 132.538 43.1104 132.296 43.2751C132.062 43.4397 131.884 43.6391 131.763 43.8731V46.3561C131.884 46.5901 132.062 46.7894 132.296 46.9541C132.538 47.1187 132.781 47.2011 133.024 47.2011ZM141.773 48.4101C140.802 48.4101 140.022 48.0937 139.433 47.4611C138.843 46.8197 138.549 46.0354 138.549 45.1081C138.549 44.1807 138.843 43.4007 139.433 42.7681C140.022 42.1354 140.802 41.8191 141.773 41.8191C142.752 41.8191 143.536 42.1354 144.126 42.7681C144.715 43.4007 145.01 44.1807 145.01 45.1081C145.01 46.0441 144.715 46.8284 144.126 47.4611C143.536 48.0937 142.752 48.4101 141.773 48.4101ZM141.773 47.2011C142.336 47.2011 142.778 47.0017 143.099 46.6031C143.428 46.1957 143.593 45.6974 143.593 45.1081C143.593 44.5274 143.428 44.0377 143.099 43.6391C142.778 43.2317 142.336 43.0281 141.773 43.0281C141.218 43.0281 140.776 43.2317 140.447 43.6391C140.126 44.0377 139.966 44.5274 139.966 45.1081C139.966 45.6974 140.126 46.1957 140.447 46.6031C140.776 47.0017 141.218 47.2011 141.773 47.2011ZM149.316 48.2541H147.951V41.9751H149.316V44.4451H152.202V41.9751H153.567V48.2541H152.202V45.6411H149.316V48.2541ZM156.25 49.8531V47.1231C156.544 47.0537 156.765 46.8847 156.913 46.6161C157.069 46.3387 157.194 45.8101 157.29 45.0301L157.667 41.9751H162.516V47.0581H163.205V49.8531H161.84V48.2541H157.615V49.8531H156.25ZM158.876 43.1711L158.655 45.1861C158.568 46.0181 158.291 46.6421 157.823 47.0581H161.151V43.1711H158.876ZM174.165 48.4101C173.333 48.4101 172.662 48.0677 172.15 47.3831V50.6461H170.785V41.9751H172.15V42.8331C172.653 42.1571 173.325 41.8191 174.165 41.8191C174.989 41.8191 175.656 42.1137 176.167 42.7031C176.687 43.2924 176.947 44.0941 176.947 45.1081C176.947 46.1221 176.687 46.9281 176.167 47.5261C175.656 48.1154 174.989 48.4101 174.165 48.4101ZM173.762 47.2011C174.3 47.2011 174.729 47.0061 175.049 46.6161C175.37 46.2261 175.53 45.7234 175.53 45.1081C175.53 44.4927 175.37 43.9944 175.049 43.6131C174.729 43.2231 174.3 43.0281 173.762 43.0281C173.45 43.0281 173.143 43.1104 172.839 43.2751C172.536 43.4397 172.306 43.6391 172.15 43.8731V46.3561C172.306 46.5901 172.536 46.7894 172.839 46.9541C173.143 47.1187 173.45 47.2011 173.762 47.2011ZM185.061 48.2541H183.696V47.5781C183.21 48.1327 182.534 48.4101 181.668 48.4101C181.096 48.4101 180.589 48.2281 180.147 47.8641C179.705 47.4914 179.484 46.9801 179.484 46.3301C179.484 45.6627 179.7 45.1557 180.134 44.8091C180.576 44.4624 181.087 44.2891 181.668 44.2891C182.56 44.2891 183.236 44.5577 183.696 45.0951V44.1591C183.696 43.7951 183.561 43.5091 183.293 43.3011C183.024 43.0931 182.669 42.9891 182.227 42.9891C181.525 42.9891 180.905 43.2534 180.368 43.7821L179.809 42.8331C180.519 42.1571 181.399 41.8191 182.448 41.8191C183.219 41.8191 183.847 42.0011 184.333 42.3651C184.818 42.7291 185.061 43.3054 185.061 44.0941V48.2541ZM182.201 47.4741C182.885 47.4741 183.384 47.2574 183.696 46.8241V45.8751C183.384 45.4417 182.885 45.2251 182.201 45.2251C181.811 45.2251 181.49 45.3291 181.239 45.5371C180.987 45.7451 180.862 46.0181 180.862 46.3561C180.862 46.6941 180.987 46.9671 181.239 47.1751C181.49 47.3744 181.811 47.4741 182.201 47.4741ZM190.653 48.4101C189.422 48.4101 188.46 48.0721 187.767 47.3961L188.404 46.5251C188.976 47.0364 189.725 47.2921 190.653 47.2921C191.129 47.2921 191.502 47.2184 191.771 47.0711C192.048 46.9151 192.187 46.7071 192.187 46.4471C192.187 45.9011 191.636 45.6281 190.536 45.6281H189.197V44.5361H190.536C191.012 44.5361 191.385 44.4667 191.654 44.3281C191.931 44.1894 192.07 43.9857 192.07 43.7171C192.07 43.4917 191.927 43.3054 191.641 43.1581C191.355 43.0107 190.995 42.9371 190.562 42.9371C189.721 42.9371 189.049 43.1884 188.547 43.6911L187.871 42.8591C188.538 42.1744 189.413 41.8321 190.497 41.8321C191.424 41.8234 192.152 41.9751 192.681 42.2871C193.218 42.5904 193.487 43.0064 193.487 43.5351C193.487 43.9337 193.318 44.2717 192.98 44.5491C192.65 44.8177 192.265 44.9824 191.823 45.0431C192.265 45.0777 192.672 45.2251 193.045 45.4851C193.426 45.7451 193.617 46.1004 193.617 46.5511C193.617 47.0971 193.348 47.5434 192.811 47.8901C192.282 48.2367 191.563 48.4101 190.653 48.4101ZM200.4 48.2541H196.552V41.9751H200.309C200.89 41.9751 201.345 42.1267 201.674 42.4301C202.003 42.7334 202.168 43.1191 202.168 43.5871C202.168 43.9511 202.068 44.2587 201.869 44.5101C201.67 44.7614 201.418 44.9304 201.115 45.0171C201.453 45.0951 201.735 45.2814 201.96 45.5761C202.185 45.8621 202.298 46.1871 202.298 46.5511C202.298 47.0537 202.129 47.4654 201.791 47.7861C201.462 48.0981 200.998 48.2541 200.4 48.2541ZM200.114 47.0581C200.357 47.0581 200.547 46.9974 200.686 46.8761C200.825 46.7461 200.894 46.5727 200.894 46.3561C200.894 46.1567 200.825 45.9877 200.686 45.8491C200.547 45.7104 200.357 45.6411 200.114 45.6411H197.917V47.0581H200.114ZM200.075 44.4451C200.292 44.4451 200.461 44.3887 200.582 44.2761C200.712 44.1547 200.777 44.0031 200.777 43.8211C200.777 43.6217 200.712 43.4657 200.582 43.3531C200.461 43.2317 200.292 43.1711 200.075 43.1711H197.917V44.4451H200.075ZM206.865 48.2541H205.552V41.9751H206.917V46.2001L209.803 41.9751H211.168V48.2541H209.803V43.9121L206.865 48.2541ZM217.009 48.2541H215.644V43.1711H213.85V41.9751H218.816V43.1711H217.009V48.2541ZM222.807 48.2541H221.494V41.9751H222.859V46.2001L225.745 41.9751H227.11V48.2541H225.745V43.9121L222.807 48.2541ZM231.781 48.2541H230.221L231.768 45.9141C231.335 45.8187 230.98 45.6021 230.702 45.2641C230.434 44.9261 230.299 44.4971 230.299 43.9771C230.299 43.4137 230.481 42.9414 230.845 42.5601C231.218 42.1701 231.729 41.9751 232.379 41.9751H235.967V48.2541H234.602V45.9791H233.159L231.781 48.2541ZM232.548 44.7831H234.602V43.1711H232.548C232.288 43.1711 232.08 43.2491 231.924 43.4051C231.768 43.5524 231.69 43.7431 231.69 43.9771C231.69 44.2197 231.764 44.4147 231.911 44.5621C232.067 44.7094 232.28 44.7831 232.548 44.7831ZM243.915 50.7111L244.123 49.4891C244.279 49.5584 244.453 49.5931 244.643 49.5931C245.085 49.5931 245.384 49.4111 245.54 49.0471L245.852 48.3321L243.278 41.9751H244.734L246.567 46.6811L248.4 41.9751H249.869L246.84 49.3851C246.468 50.3124 245.748 50.7847 244.682 50.8021C244.396 50.8021 244.141 50.7717 243.915 50.7111ZM255.147 48.4101C254.193 48.4101 253.413 48.1024 252.807 47.4871C252.2 46.8631 251.897 46.0701 251.897 45.1081C251.897 44.1547 252.2 43.3704 252.807 42.7551C253.413 42.1311 254.193 41.8191 255.147 41.8191C256.195 41.8191 256.997 42.1917 257.552 42.9371L256.655 43.7691C256.308 43.2751 255.827 43.0281 255.212 43.0281C254.64 43.0281 254.18 43.2231 253.834 43.6131C253.487 43.9944 253.314 44.4927 253.314 45.1081C253.314 45.7234 253.487 46.2261 253.834 46.6161C254.18 47.0061 254.64 47.2011 255.212 47.2011C255.81 47.2011 256.291 46.9541 256.655 46.4601L257.552 47.2921C256.997 48.0374 256.195 48.4101 255.147 48.4101ZM265.508 48.2541H264.143V47.5781C263.658 48.1327 262.982 48.4101 262.115 48.4101C261.543 48.4101 261.036 48.2281 260.594 47.8641C260.152 47.4914 259.931 46.9801 259.931 46.3301C259.931 45.6627 260.148 45.1557 260.581 44.8091C261.023 44.4624 261.535 44.2891 262.115 44.2891C263.008 44.2891 263.684 44.5577 264.143 45.0951V44.1591C264.143 43.7951 264.009 43.5091 263.74 43.3011C263.472 43.0931 263.116 42.9891 262.674 42.9891C261.972 42.9891 261.353 43.2534 260.815 43.7821L260.256 42.8331C260.967 42.1571 261.847 41.8191 262.895 41.8191C263.667 41.8191 264.295 42.0011 264.78 42.3651C265.266 42.7291 265.508 43.3054 265.508 44.0941V48.2541ZM262.648 47.4741C263.333 47.4741 263.831 47.2574 264.143 46.8241V45.8751C263.831 45.4417 263.333 45.2251 262.648 45.2251C262.258 45.2251 261.938 45.3291 261.686 45.5371C261.435 45.7451 261.309 46.0181 261.309 46.3561C261.309 46.6941 261.435 46.9671 261.686 47.1751C261.938 47.3744 262.258 47.4741 262.648 47.4741ZM268.188 49.8531V47.1231C268.483 47.0537 268.704 46.8847 268.851 46.6161C269.007 46.3387 269.133 45.8101 269.228 45.0301L269.605 41.9751H274.454V47.0581H275.143V49.8531H273.778V48.2541H269.553V49.8531H268.188ZM270.814 43.1711L270.593 45.1861C270.507 46.0181 270.229 46.6421 269.761 47.0581H273.089V43.1711H270.814ZM277.825 41.9751H279.19V44.2501H281.413C282.08 44.2501 282.592 44.4407 282.947 44.8221C283.311 45.2034 283.493 45.6801 283.493 46.2521C283.493 46.8154 283.307 47.2921 282.934 47.6821C282.57 48.0634 282.063 48.2541 281.413 48.2541H277.825V41.9751ZM281.244 45.4461H279.19V47.0581H281.244C281.513 47.0581 281.721 46.9844 281.868 46.8371C282.024 46.6897 282.102 46.4947 282.102 46.2521C282.102 46.0094 282.024 45.8144 281.868 45.6671C281.721 45.5197 281.513 45.4461 281.244 45.4461ZM289.239 47.2011C289.803 47.2011 290.245 46.9974 290.565 46.5901C290.895 46.1827 291.059 45.6801 291.059 45.0821C291.059 44.5101 290.895 44.0247 290.565 43.6261C290.245 43.2274 289.803 43.0281 289.239 43.0281C288.685 43.0281 288.243 43.2274 287.913 43.6261C287.593 44.0247 287.432 44.5101 287.432 45.0821C287.432 45.6801 287.593 46.1827 287.913 46.5901C288.243 46.9974 288.685 47.2011 289.239 47.2011ZM291.592 47.4481C291.012 48.0894 290.227 48.4101 289.239 48.4101C288.251 48.4101 287.467 48.0764 286.886 47.4091C286.314 46.7331 286.028 45.8707 286.028 44.8221C286.028 43.3227 286.284 42.2047 286.795 41.4681C287.315 40.7314 288.113 40.2981 289.187 40.1681C289.837 40.0727 290.284 39.9817 290.526 39.8951C290.778 39.8084 290.903 39.7044 290.903 39.5831H292.242C292.242 40.4931 291.35 41.0477 289.564 41.2471C288.862 41.3251 288.321 41.5201 287.939 41.8321C287.567 42.1354 287.333 42.4994 287.237 42.9241C287.489 42.5774 287.814 42.3087 288.212 42.1181C288.62 41.9187 289.049 41.8191 289.499 41.8191C290.366 41.8191 291.077 42.1397 291.631 42.7811C292.186 43.4224 292.463 44.1937 292.463 45.0951C292.463 46.0224 292.173 46.8067 291.592 47.4481ZM295.468 41.9751H296.833V44.2501H299.056C299.724 44.2501 300.235 44.4407 300.59 44.8221C300.954 45.2034 301.136 45.6801 301.136 46.2521C301.136 46.8154 300.95 47.2921 300.577 47.6821C300.213 48.0634 299.706 48.2541 299.056 48.2541H295.468V41.9751ZM298.887 45.4461H296.833V47.0581H298.887C299.156 47.0581 299.364 46.9844 299.511 46.8371C299.667 46.6897 299.745 46.4947 299.745 46.2521C299.745 46.0094 299.667 45.8144 299.511 45.6671C299.364 45.5197 299.156 45.4461 298.887 45.4461ZM303.45 48.2541H302.085V41.9751H303.45V48.2541Z" fill="currentColor"/>

</symbol><symbol id="menu" viewBox="0 0 30 16">
<rect width="30" height="2" fill="currentColor"/>
<rect x="9" y="7" width="21" height="2" fill="currentColor"/>
<rect x="18" y="14" width="12" height="2" fill="currentColor"/>
</symbol></svg>